<svg width="9" height="16" viewBox="0 0 9 16" fill="#FCFCFC" xmlns="http://www.w3.org/2000/svg">
<path d="M8.00001 1L8.35356 1.35355L8.50001 1.20711V1H8.00001ZM1.00001 8L0.646462 7.64645L0.292908 8L0.646462 8.35355L1.00001 8ZM8.00001 15H8.50001V14.7929L8.35356 14.6464L8.00001 15ZM8.50001 -9C8.50001 -9.27614 8.72387 -9.5 9.00001 -9.5V-10.5C8.17158 -10.5 7.50001 -9.82843 7.50001 -9H8.50001ZM8.50001 1V-9H7.50001V1H8.50001ZM1.35356 8.35355L8.35356 1.35355L7.64646 0.646447L0.646462 7.64645L1.35356 8.35355ZM8.35356 14.6464L1.35356 7.64645L0.646462 8.35355L7.64646 15.3536L8.35356 14.6464ZM8.50001 41V15H7.50001V41H8.50001ZM9.00001 41.5C8.72387 41.5 8.50001 41.2761 8.50001 41H7.50001C7.50001 41.8284 8.17158 42.5 9.00001 42.5V41.5ZM169 41.5H9.00001V42.5H169V41.5ZM169.5 41C169.5 41.2761 169.276 41.5 169 41.5V42.5C169.828 42.5 170.5 41.8284 170.5 41H169.5ZM169.5 -9V41H170.5V-9H169.5ZM169 -9.5C169.276 -9.5 169.5 -9.27614 169.5 -9H170.5C170.5 -9.82842 169.828 -10.5 169 -10.5V-9.5ZM9.00001 -9.5H169V-10.5H9.00001V-9.5Z" fill="#B9B9B9"/>
</svg>
